<?xml version="1.0" encoding="UTF-8" standalone="no"?>
<!-- Created with Inkscape (http://www.inkscape.org/) -->

<svg
   width="125"
   height="145"
   viewBox="0 0 33.072916 38.364583"
   version="1.1"
   id="svg1"
   inkscape:version="1.4.3 (0d15f75, 2025-12-25)"
   sodipodi:docname="logo_block.svg"
   xmlns:inkscape="http://www.inkscape.org/namespaces/inkscape"
   xmlns:sodipodi="http://sodipodi.sourceforge.net/DTD/sodipodi-0.dtd"
   xmlns="http://www.w3.org/2000/svg"
   xmlns:svg="http://www.w3.org/2000/svg">
  <sodipodi:namedview
     id="namedview1"
     pagecolor="#000000"
     bordercolor="#eeeeee"
     borderopacity="1"
     inkscape:showpageshadow="0"
     inkscape:pageopacity="0"
     inkscape:pagecheckerboard="true"
     inkscape:deskcolor="#505050"
     inkscape:document-units="mm"
     inkscape:zoom="0.065778217"
     inkscape:cx="60.810405"
     inkscape:cy="76.013006"
     inkscape:window-width="1366"
     inkscape:window-height="745"
     inkscape:window-x="-8"
     inkscape:window-y="-8"
     inkscape:window-maximized="1"
     inkscape:current-layer="layer1" />
  <defs
     id="defs1" />
  <g
     inkscape:label="Layer 1"
     inkscape:groupmode="layer"
     id="layer1">
    <path
       id="rect12"
       style="fill:none;stroke-width:0.264583"
       d="M 0,0 H 760.00038 V 660.00034 H 0 Z" />
    <path
       id="path17494"
       style="fill:#ffffff;fill-opacity:1;stroke:none;stroke-width:0.959452;stroke-dasharray:none;stroke-opacity:1"
       d="m 659.99837,20.00001 a 44.99856,44.99856 0 0 0 -31.81838,13.179694 44.99856,44.99856 0 0 0 0,63.636754 44.99856,44.99856 0 0 0 63.6387,0 44.99856,44.99856 0 0 0 0,-63.636754 44.99856,44.99856 0 0 0 -31.82032,-13.179694 z m 10.18946,7.531253 a 38.82733,38.82733 0 0 1 28.63867,37.466818 38.82733,38.82733 0 0 1 -38.82813,38.828149 38.82733,38.82733 0 0 1 -38.8262,-38.828149 38.82733,38.82733 0 0 1 28.63871,-37.460957 10.285385,10.285385 0 0 0 10.18749,8.919926 10.285385,10.285385 0 0 0 10.18946,-8.925787 z M 638.1429,59.855502 a 4.5000023,4.5000023 0 0 0 -4.50002,4.500002 4.5000023,4.5000023 0 0 0 4.50002,4.500002 4.5000023,4.5000023 0 0 0 4.49999,-4.500002 4.5000023,4.5000023 0 0 0 -4.49999,-4.500002 z m 43.71291,0 a 4.5000023,4.5000023 0 0 0 -4.50002,4.500002 4.5000023,4.5000023 0 0 0 4.50002,4.499998 4.5000023,4.5000023 0 0 0 4.49998,-4.500002 4.5000023,4.5000023 0 0 0 -4.49998,-4.499998 z m -37.31254,15.455085 a 4.5000027,4.5000027 0 0 0 -3.18164,1.318361 4.5000027,4.5000027 0 0 0 0,6.363284 4.5000027,4.5000027 0 0 0 6.36525,0 4.5000027,4.5000027 0 0 0 0,-6.363288 4.5000027,4.5000027 0 0 0 -3.18361,-1.318357 z m 30.9102,0 a 4.5000027,4.5000027 0 0 0 -3.18164,1.318361 4.5000027,4.5000027 0 0 0 0,6.363284 4.5000027,4.5000027 0 0 0 6.36329,0 4.5000027,4.5000027 0 0 0 0,-6.363284 4.5000027,4.5000027 0 0 0 -3.18165,-1.318361 z m -15.4551,6.402346 a 4.5000023,4.5000023 0 0 0 -4.50002,4.500002 4.5000023,4.5000023 0 0 0 4.50002,4.500002 4.5000023,4.5000023 0 0 0 4.49999,-4.500002 4.5000023,4.5000023 0 0 0 -4.49999,-4.500002 z m 37.4551,13.103523 -7.63673,7.636724 10.91018,10.91016 7.63669,-7.63672 z m 13.45509,12.001964 -9.08984,9.08984 29.08986,29.09182 9.09177,-9.0918 z m -43.53323,24.3379 v 11.84375 h 3.32815 l -4e-5,-11.84375 z m 30.57814,0 v 11.84375 h 3.32814 v -4.54687 c 0,-0.35418 0.0782,-0.64324 0.23433,-0.86719 0.15609,-0.22915 0.38279,-0.34375 0.67967,-0.34375 0.60937,0 0.91408,0.39844 0.91408,1.19532 v 4.5625 h 3.21876 v -4.91407 c 0,-1.07812 -0.22639,-1.89323 -0.67971,-2.44531 -0.45313,-0.55729 -1.11198,-0.83594 -1.97654,-0.83594 -0.46878,0 -0.90887,0.11199 -1.32034,0.33593 -0.40623,0.21876 -0.75258,0.53385 -1.03903,0.94531 h -0.0302 v -4.92969 z m -35.33596,0.45312 c -1.38542,1e-5 -2.48957,0.32553 -3.31249,0.97657 -0.82292,0.64583 -1.2344,1.51042 -1.2344,2.59375 0,1.54687 0.90108,2.66667 2.70316,3.35937 0.55729,0.20833 0.93751,0.3724 1.14063,0.49219 0.20825,0.11978 0.36207,0.25002 0.46091,0.39063 0.10431,0.13542 0.15609,0.29427 0.15609,0.47656 0,0.25523 -0.10167,0.45053 -0.30463,0.58594 -0.20296,0.1302 -0.4896,0.19533 -0.85939,0.19533 -0.48956,0 -1.0182,-0.10417 -1.58592,-0.3125 -0.56773,-0.21354 -1.08594,-0.49218 -1.55471,-0.83594 v 3.07032 c 0.97398,0.39583 2.04688,0.59375 3.21876,0.59375 1.01042,0 1.87502,-0.13542 2.59378,-0.40625 0.71871,-0.27084 1.276,-0.68229 1.67187,-1.23438 0.40101,-0.55208 0.60155,-1.20052 0.60155,-1.94531 0,-0.76563 -0.24227,-1.42709 -0.72658,-1.98437 -0.47917,-0.5573 -1.29947,-1.07032 -2.46092,-1.53907 -0.58855,-0.2448 -0.9766,-0.44272 -1.16406,-0.59375 -0.18217,-0.15624 -0.27364,-0.35157 -0.27364,-0.58594 0,-0.2448 0.11452,-0.4375 0.34394,-0.57812 0.22904,-0.14064 0.53125,-0.21094 0.90625,-0.21094 0.91148,0 1.83856,0.2578 2.78125,0.77344 v -2.85156 c -0.48439,-0.13021 -0.86196,-0.21876 -1.1328,-0.26563 -0.26571,-0.0469 -0.56251,-0.0859 -0.89065,-0.1172 -0.32806,-0.0314 -0.6875,-0.0469 -1.07811,-0.0469 z m -47.61719,0.1875 v 11.20313 h 2.96092 v -5.28125 c 0,-0.4375 -0.0378,-1.53125 -0.10923,-3.28125 h 0.0937 c 0.19805,1.10418 0.32013,1.7396 0.36699,1.90625 l 1.72657,6.65625 h 3.17185 l 1.64845,-6.73437 c 0.0884,-0.33853 0.21619,-0.94792 0.38283,-1.82813 h 0.0937 l -0.0227,0.51563 c -0.0378,0.6927 -0.0548,1.32812 -0.0548,1.90625 v 6.14062 h 3.32814 v -11.20313 h -4.97658 l -1.43747,6.05469 c -0.12511,0.64584 -0.21619,1.20573 -0.27364,1.67969 h -0.0469 c -0.0151,-0.20833 -0.0548,-0.5026 -0.11716,-0.88281 -0.0575,-0.38541 -0.10432,-0.64062 -0.1406,-0.76562 l -1.53906,-6.08595 z m 15.78906,0 v 11.20313 h 3.375 v -11.20313 z m 5.57813,0 v 11.20313 h 4.74217 c 1.15628,0 2.17709,-0.23697 3.06252,-0.71094 0.88539,-0.47395 1.5651,-1.14583 2.03905,-2.01562 0.47917,-0.875 0.71876,-1.88021 0.71876,-3.01563 0,-3.64062 -1.97397,-5.46094 -5.92188,-5.46094 z m 12.14064,0 v 11.20313 h 3.37497 v -11.20313 z m 46.7422,0.72657 -3.28124,0.90625 v 1.57031 h -1.25783 v 2.30469 h 1.25779 v 2.94531 c 0,0.94271 0.26041,1.66927 0.78127,2.17969 0.52603,0.51042 1.25261,0.76563 2.17969,0.76563 0.48439,0 0.89843,-0.034 1.24218,-0.10156 0.34356,-0.0625 0.59116,-0.1302 0.74219,-0.20311 v -2.30469 c -0.29178,0.11456 -0.56769,0.1719 -0.82813,0.17186 -0.5573,0 -0.83592,-0.35157 -0.83592,-1.05469 v -2.39844 h 1.66405 v -2.30468 l -1.66405,-1e-5 z m -55.50784,1.91406 h 0.86718 c 0.55729,0 1.04168,0.11981 1.45312,0.35936 0.41147,0.23958 0.72657,0.57812 0.94533,1.01562 0.22413,0.4375 0.336,0.92969 0.336,1.47656 0,0.93751 -0.24227,1.6849 -0.72658,2.2422 -0.47916,0.55208 -1.12236,0.82812 -1.92967,0.82812 h -0.9453 z m 36.45315,0.36718 c -0.80731,0 -1.54689,0.1875 -2.21877,0.5625 -0.66667,0.36979 -1.17188,0.88282 -1.51563,1.53907 -0.33865,0.65624 -0.50782,1.41405 -0.50782,2.27343 0,1.25 0.38805,2.23177 1.1641,2.94531 0.77601,0.71355 1.86194,1.07032 3.2578,1.07032 1.15102,0 2.13022,-0.16146 2.93749,-0.48438 v -2.10937 c -0.69271,0.29688 -1.42708,0.44531 -2.20313,0.44531 -0.55729,0 -1.0052,-0.0963 -1.34373,-0.28906 -0.33865,-0.19793 -0.53647,-0.46875 -0.59377,-0.8125 h 4.94533 v -1.25 c 0,-0.78125 -0.15345,-1.46355 -0.46095,-2.04688 -0.30199,-0.58333 -0.74741,-1.03646 -1.33592,-1.35937 -0.58855,-0.32293 -1.2969,-0.48438 -2.125,-0.48438 z m 4.97654,0.19533 v 4.82813 c 0,1.10937 0.22904,1.94791 0.6875,2.51562 0.45834,0.56771 1.12502,0.85157 2.00001,0.85157 0.36964,-1e-5 0.69272,-0.0547 0.96874,-0.16407 0.28119,-0.10938 0.53125,-0.25259 0.75001,-0.42969 0.22412,-0.17707 0.47395,-0.45573 0.75001,-0.83594 h 0.0302 v 1.23438 h 3.3281 v -8 l -3.3281,-1e-5 v 4.53125 c 0,0.39063 -0.0835,0.69271 -0.24982,0.90626 -0.16139,0.21354 -0.40366,0.32031 -0.72654,0.32031 -0.58855,0 -0.88283,-0.39323 -0.88283,-1.17969 v -4.57812 z m -4.99219,1.82031 c 0.66146,0 0.99221,0.46094 0.99221,1.38282 h -2.01563 c 0.0302,-0.41667 0.1406,-0.75 0.32807,-1.00001 0.18746,-0.25519 0.4193,-0.38281 0.69532,-0.38281 z m -28.33985,14.03321 c -0.30237,0 -0.56009,0.0707 -0.77345,0.2129 -0.21316,0.13334 -0.3205,0.39122 -0.3205,0.77344 0,0.36442 0.10696,0.61753 0.3205,0.75977 0.21317,0.14222 0.47124,0.2129 0.77345,0.2129 0.29329,-1e-5 0.54644,-0.0707 0.75976,-0.2129 0.22223,-0.14223 0.33411,-0.39533 0.33411,-0.75977 0,-0.38222 -0.11188,-0.6401 -0.33411,-0.77344 -0.21317,-0.14219 -0.46643,-0.2129 -0.75976,-0.2129 z m -32.83984,0.0136 v 10.13282 h 1.54684 l 0.33411,-0.78711 h 0.13267 c 0.1954,0.23112 0.44386,0.44507 0.74611,0.64062 0.31106,0.18667 0.73421,0.27931 1.26754,0.27931 0.83558,1e-5 1.50702,-0.31899 2.0137,-0.95899 0.51556,-0.63999 0.77148,-1.58368 0.77148,-2.82812 0,-1.23555 -0.25323,-2.16772 -0.75976,-2.79883 -0.50669,-0.64 -1.16376,-0.96094 -1.97265,-0.96094 -0.52445,0 -0.95044,0.10696 -1.2793,0.32032 -0.32882,0.20443 -0.59157,0.45754 -0.78712,0.75976 h -0.0801 c 0.0189,-0.18667 0.034,-0.40344 0.0529,-0.65234 0.0189,-0.24888 0.0265,-0.51155 0.0265,-0.78711 v -2.35937 z m 80.49415,0.47852 c -0.56886,0 -1.05789,0.0678 -1.4668,0.20118 -0.39999,0.12442 -0.75723,0.28774 -1.06836,0.49219 -0.30236,0.20443 -0.58968,0.42797 -0.86521,0.66797 l 1.09376,1.29297 c 0.38222,-0.3111 0.74513,-0.55181 1.09179,-0.7207 0.34658,-0.16891 0.70194,-0.25195 1.0664,-0.25195 0.35565,0 0.63734,0.0926 0.84181,0.27931 0.21317,0.18667 0.31824,0.47129 0.31824,0.85351 0,0.31113 -0.0658,0.60336 -0.19918,0.87891 -0.13342,0.26668 -0.34734,0.57043 -0.64064,0.90821 -0.29329,0.32889 -0.68016,0.74245 -1.16016,1.24023 l -2.3867,2.41211 v 1.40039 h 6.65428 v -1.69336 h -4.14648 v -0.0937 l 1.22657,-1.14649 c 0.55997,-0.51555 1.03468,-0.9874 1.42579,-1.41406 0.39998,-0.42667 0.70375,-0.85742 0.90818,-1.29297 0.21317,-0.43556 0.31824,-0.91501 0.31824,-1.43945 0,-0.48889 -0.12397,-0.92443 -0.37304,-1.30665 -0.24,-0.39112 -0.58572,-0.69771 -1.03907,-0.91992 -0.44444,-0.23112 -0.97739,-0.34764 -1.59961,-0.34764 z m 11.61332,0 c -0.69335,0 -1.29415,0.0898 -1.80079,0.26759 -0.49777,0.17779 -0.93332,0.39935 -1.30666,0.66601 l 0.93362,1.38672 c 0.23092,-0.15111 0.51095,-0.30202 0.83981,-0.45313 0.33789,-0.15998 0.73224,-0.24022 1.18556,-0.24022 0.48888,0 0.83656,0.0994 1.04103,0.29491 0.21317,0.18667 0.32051,0.44738 0.32051,0.78516 0,0.24888 -0.0582,0.47242 -0.17386,0.66797 -0.10658,0.18667 -0.31597,0.33755 -0.62695,0.45312 -0.30236,0.10666 -0.74536,0.16014 -1.33202,0.16014 h -0.73436 v 1.54688 h 0.72068 c 0.59558,0 1.05785,0.0487 1.38671,0.14649 0.33789,0.0889 0.57177,0.22545 0.70511,0.41211 0.13342,0.17779 0.20107,0.40131 0.20107,0.66797 0,0.45333 -0.14627,0.80384 -0.43945,1.05274 -0.2846,0.24888 -0.7878,0.37304 -1.5078,0.37304 -0.38223,0 -0.80058,-0.0535 -1.2539,-0.16014 -0.44447,-0.10666 -0.87042,-0.26234 -1.27929,-0.4668 v 1.70703 c 0.79997,0.34666 1.71496,0.51954 2.74609,0.51954 0.88887,0 1.61382,-0.12416 2.17383,-0.37304 0.56886,-0.25777 0.98722,-0.60351 1.2539,-1.03907 0.27553,-0.44444 0.41405,-0.94303 0.41405,-1.49414 0,-0.63111 -0.20145,-1.13253 -0.60155,-1.50586 -0.39111,-0.37334 -0.96798,-0.60446 -1.73243,-0.69336 v -0.041 c 0.57778,-0.14222 1.06201,-0.40772 1.45312,-0.79883 0.39999,-0.39111 0.59962,-0.91644 0.59962,-1.57422 0,-0.71999 -0.28951,-1.2749 -0.86721,-1.66601 -0.56886,-0.4 -1.34056,-0.60156 -2.31833,-0.60156 z m -72.64067,0.13477 v 9.51954 h 1.80076 v -4.42579 c 0,-0.32889 -0.0113,-0.69374 -0.0265,-1.09375 -0.0189,-0.40888 -0.034,-0.79093 -0.0529,-1.14648 -0.0189,-0.35554 -0.0302,-0.62299 -0.0412,-0.80078 h 0.0529 l 2.29489,7.4668 h 1.85352 l 2.45314,-7.45313 h 0.0525 c -0.008,0.17779 -0.0227,0.44328 -0.0412,0.79882 -0.008,0.34666 -0.0227,0.71632 -0.0389,1.10743 -0.008,0.39111 -0.0151,0.7388 -0.0151,1.04102 v 4.50586 h 1.88085 v -9.51949 h -2.74806 l -2.3867,7.2793 h -0.0389 l -2.25388,-7.2793 z m 49.0801,0 -3.0664,2.43946 0.97266,1.21289 1.09372,-0.87891 c 0.12434,-0.10666 0.25814,-0.22798 0.4004,-0.36132 0.15118,-0.14223 0.24869,-0.23962 0.29291,-0.29295 -0.008,0.28444 -0.0227,0.613 -0.0412,0.98633 -0.008,0.37334 -0.0113,0.67709 -0.0113,0.9082 v 5.50586 h 2.01173 v -9.51953 z m 36.22657,0 -4.17381,6.14649 v 1.40039 h 4.06639 v 1.97266 h 1.96094 v -1.97266 h 1.14648 v -1.56055 l -1.14648,10e-6 v -5.98634 z m -61.27933,0.69336 -0.57422,1.53321 -1.09376,0.66601 4e-5,0.83985 h 0.94726 v 3.50781 c -4e-5,0.62222 0.0975,1.11124 0.29291,1.4668 0.20448,0.34669 0.47668,0.59021 0.81445,0.73242 0.34659,0.14222 0.73633,0.2129 1.17189,0.2129 0.37341,0 0.71622,-0.0344 1.02735,-0.10549 0.32012,-0.0622 0.58741,-0.13765 0.80077,-0.22654 v -1.48047 c -0.20448,0.0622 -0.40884,0.11569 -0.61327,0.16013 -0.20447,0.0444 -0.41843,0.0664 -0.64063,0.0664 -0.25776,0 -0.46696,-0.0678 -0.62695,-0.20118 -0.15987,-0.14223 -0.24038,-0.34946 -0.24038,-0.625 v -3.50782 l 2.04102,10e-6 v -1.49212 l -2.04102,-10e-6 v -1.54687 z m -5.16015,1.41211 c -0.87111,0 -1.5741,0.17481 -2.10743,0.52148 -0.52445,0.34666 -0.78709,0.85766 -0.78713,1.53321 0,0.60445 0.16517,1.06673 0.49418,1.38672 0.33789,0.31113 0.83157,0.59574 1.48044,0.85352 0.43555,0.16887 0.76891,0.31022 1.00003,0.42578 0.24,0.11554 0.40327,0.22734 0.49217,0.33399 0.0979,0.10666 0.14664,0.22602 0.14664,0.3594 0,0.19555 -0.0926,0.35123 -0.27931,0.4668 -0.17763,0.11554 -0.47195,0.17382 -0.88085,0.17382 -0.33789,0 -0.73221,-0.0535 -1.18553,-0.16014 -0.44447,-0.10666 -0.86283,-0.25474 -1.25393,-0.4414 v 1.66796 c 0.36434,0.15115 0.74173,0.25811 1.13284,0.32032 0.3911,0.0711 0.84574,0.10549 1.36131,0.10545 1.02221,0 1.77675,-0.2044 2.26564,-0.61328 0.49776,-0.41778 0.74804,-0.97269 0.74804,-1.66602 0,-0.41777 -0.0775,-0.76068 -0.22866,-1.02735 -0.14211,-0.27556 -0.36397,-0.50669 -0.66603,-0.69335 -0.29329,-0.18667 -0.6582,-0.36911 -1.09376,-0.54688 -0.42667,-0.16891 -0.75999,-0.30546 -0.99999,-0.41211 -0.2313,-0.10666 -0.39443,-0.2041 -0.4922,-0.29295 -0.0888,-0.0978 -0.13267,-0.21434 -0.13267,-0.34764 0,-0.35554 0.319,-0.53321 0.95898,-0.53321 0.27553,0 0.59173,0.0487 0.94731,0.1465 0.35565,0.0978 0.70125,0.22193 1.03903,0.37304 l 0.5879,-1.37305 c -0.41779,-0.17775 -0.83134,-0.31627 -1.24021,-0.41406 -0.40891,-0.0978 -0.84443,-0.14649 -1.30666,-0.14649 z m 13.05275,0 c -1.03113,0 -1.86587,0.32092 -2.50586,0.96094 -0.63111,0.64 -0.94727,1.59608 -0.94727,2.86719 0,0.83555 0.16063,1.52897 0.48046,2.08008 0.32012,0.55111 0.75553,0.96272 1.30666,1.23828 0.55997,0.26669 1.19992,0.40039 1.91992,0.40039 0.57778,0 1.06677,-0.0439 1.4668,-0.13281 0.39999,-0.08 0.77726,-0.20893 1.1328,-0.38672 v -1.50587 c -0.39111,0.17779 -0.77314,0.30955 -1.14648,0.39844 -0.37342,0.0889 -0.7869,0.13478 -1.24025,0.13478 -0.59555,0 -1.05306,-0.15568 -1.37303,-0.4668 -0.31106,-0.32001 -0.48117,-0.75553 -0.50782,-1.30664 h 4.68163 v -0.97461 c 0,-1.06667 -0.29405,-1.88424 -0.88086,-2.45312 -0.57778,-0.56889 -1.37337,-0.85352 -2.3867,-0.85352 z m 8.88084,0 c -0.45332,0 -0.86687,0.13372 -1.24022,0.40039 -0.36434,0.26669 -0.65385,0.58761 -0.86721,0.96094 h -0.0937 l -0.29291,-1.22656 h -1.53317 l -4e-5,7.2793 h 2.0137 v -3.69336 c 0,-0.46223 0.0877,-0.82709 0.2657,-1.09375 0.18671,-0.26669 0.41779,-0.45672 0.69335,-0.57227 0.27553,-0.11554 0.5506,-0.17382 0.82617,-0.17382 0.18671,0 0.34696,0.009 0.48049,0.0272 0.13342,0.009 0.24983,0.0261 0.34772,0.0527 l 0.19918,-1.88086 c -0.0979,-0.0178 -0.22186,-0.0348 -0.37304,-0.0527 -0.15118,-0.0178 -0.29254,-0.0272 -0.4258,-0.0272 z m -53.08009,0.13478 2.89259,7.22657 -0.16026,0.41211 c -0.13341,0.34669 -0.31105,0.63608 -0.53317,0.86719 -0.22224,0.24 -0.5384,0.35935 -0.94727,0.35935 -0.15118,0 -0.29707,-0.008 -0.43948,-0.0253 -0.14211,-0.0178 -0.25663,-0.0367 -0.34583,-0.0547 v 1.5879 c 0.11566,0.0264 0.2521,0.0485 0.41208,0.0664 0.16895,0.0268 0.36851,0.0391 0.59963,0.0391 0.86222,0 1.52606,-0.21679 1.98829,-0.65234 0.47108,-0.43557 0.85595,-1.06309 1.1582,-1.88087 l 2.98829,-7.94531 h -2.0801 l -1.34763,4.16015 c -0.0624,0.19556 -0.12813,0.40279 -0.19918,0.62501 -0.0624,0.22223 -0.10621,0.42662 -0.13267,0.61327 l -0.0548,1e-5 c -0.0265,-0.19556 -0.0707,-0.39994 -0.13266,-0.61328 -0.0533,-0.22224 -0.1115,-0.42945 -0.17386,-0.62501 l -1.37303,-4.16015 z m 24.63868,1e-5 v 7.2793 h 2.01369 v -7.27927 z m 72.86721,0.0664 h 0.0529 c -0.008,0.08 -0.0227,0.24809 -0.0389,0.50586 -0.008,0.24888 -0.0189,0.52112 -0.0264,0.81445 -0.008,0.29333 -0.0151,0.54165 -0.0151,0.7461 v 1.61328 h -2.29297 l 1.74611,-2.64063 c 0.12434,-0.17779 0.23131,-0.35062 0.3205,-0.51953 0.0888,-0.16887 0.17386,-0.34174 0.25399,-0.51953 z m -53.25391,1.22656 c 0.44443,0 0.77299,0.14136 0.9863,0.42579 0.22224,0.28445 0.33865,0.64452 0.34772,1.08007 h -2.74609 c 0.034,-0.49777 0.17688,-0.87024 0.42576,-1.11914 0.25777,-0.25776 0.58636,-0.38672 0.98635,-0.38672 z m -48.01174,0.17382 c 0.89775,0 1.3457,0.71059 1.3457,2.13281 0,0.71111 -0.11188,1.25363 -0.33411,1.62696 -0.22224,0.37334 -0.55076,0.55859 -0.98631,0.55859 -0.54225,0 -0.91948,-0.17287 -1.13284,-0.51953 -0.20447,-0.35554 -0.30652,-0.87893 -0.30652,-1.57227 v -0.24022 c 0,-0.68445 0.10696,-1.18782 0.32013,-1.50782 0.22224,-0.32001 0.58707,-0.47851 1.09376,-0.47851 z m 69.26566,1.41211 v 1.6543 h 3.50585 v -1.6543 z m 11.89259,0 v 1.6543 h 3.50778 v -1.6543 z m 11.89452,0 v 1.6543 h 3.50585 v -1.6543 z" />
  </g>
</svg>
